<svg xmlns="http://www.w3.org/2000/svg" viewBox="0 0 256 256" shape-rendering="crispEdges" aria-hidden="true">
  <!-- Weißer Kreis als Badge -->
  <circle cx="128" cy="128" r="120" fill="#ffffff"/>
  <!-- Pixel-Fuchs (Brand-Orange) auf 16x16 Raster (Pixelgröße 16) -->
  <g fill="#f97316">
    <!-- y=2: Ohren-Spitzen -->
    <rect x="64" y="32" width="16" height="16"/><rect x="80" y="32" width="16" height="16"/>
    <rect x="160" y="32" width="16" height="16"/><rect x="176" y="32" width="16" height="16"/>
    <!-- y=3 -->
    <rect x="48" y="48" width="64" height="16"/><rect x="144" y="48" width="64" height="16"/>
    <!-- y=4 -->
    <rect x="48" y="64" width="64" height="16"/><rect x="144" y="64" width="64" height="16"/>
    <!-- y=5: Kopfbreite -->
    <rect x="48" y="80" width="160" height="16"/>
    <!-- y=6 -->
    <rect x="64" y="96" width="128" height="16"/>
    <!-- y=7: Wangen etwas breiter -->
    <rect x="48" y="112" width="160" height="16"/>
    <!-- y=8: Schnauzen-Einzug (Mitte frei) -->
    <rect x="64" y="128" width="48" height="16"/><rect x="144" y="128" width="48" height="16"/>
    <!-- y=9 -->
    <rect x="80" y="144" width="96" height="16"/>
    <!-- y=10 -->
    <rect x="80" y="160" width="96" height="16"/>
    <!-- y=11 -->
    <rect x="96" y="176" width="64" height="16"/>
    <!-- y=12 -->
    <rect x="96" y="192" width="64" height="16"/>
    <!-- y=13: Kinn -->
    <rect x="112" y="208" width="32" height="16"/>
  </g>
</svg>
